<svg width="19" height="19" viewBox="0 0 19 19" fill="none" xmlns="http://www.w3.org/2000/svg">
<path d="M9.48263 0C12.14 0 14.4025 0.927749 16.2684 2.78236C17.1614 3.67567 17.8404 4.69664 18.3041 5.84437C18.7675 6.99241 19 8.2108 19 9.50015C19 10.8008 18.7705 12.0195 18.313 13.1556C17.8549 14.2921 17.1789 15.2961 16.2859 16.1669C15.3588 17.0828 14.3069 17.7843 13.1304 18.2706C11.9545 18.7569 10.7384 19 9.48323 19C8.22802 19 7.02625 18.7601 5.87822 18.2789C4.73048 17.7985 3.7012 17.1029 2.79067 16.1927C1.88014 15.2825 1.18752 14.2559 0.712511 13.1135C0.237504 11.9711 0 10.7669 0 9.50015C0 8.24465 0.240176 7.03753 0.720824 5.87822C1.20147 4.7189 1.90003 3.68131 2.8159 2.76514C4.62538 0.922108 6.84753 0 9.48263 0ZM9.51707 1.71359C7.34569 1.71359 5.51899 2.47152 4.03727 3.9868C3.29061 4.74473 2.71675 5.59559 2.31536 6.53996C1.91339 7.48434 1.713 8.47116 1.713 9.50045C1.713 10.5184 1.91339 11.4996 2.31536 12.4434C2.71704 13.3884 3.29061 14.2309 4.03727 14.9716C4.78362 15.7127 5.62587 16.2776 6.5652 16.6683C7.50363 17.0584 8.48779 17.2535 9.51707 17.2535C10.5348 17.2535 11.521 17.056 12.4779 16.66C13.4335 16.2637 14.2951 15.6931 15.0646 14.9467C16.546 13.4991 17.2864 11.684 17.2864 9.50074C17.2864 8.4489 17.094 7.45376 16.7096 6.51502C16.3257 5.57629 15.7655 4.73968 15.031 4.00402C13.5033 2.47716 11.6659 1.71359 9.51707 1.71359ZM9.39802 7.92283L8.1253 8.58457C7.98933 8.30224 7.82278 8.10392 7.62506 7.99081C7.42704 7.878 7.24327 7.82129 7.07345 7.82129C6.22557 7.82129 5.80103 8.38091 5.80103 9.50074C5.80103 10.0096 5.9085 10.4163 6.12314 10.7218C6.33808 11.0273 6.65485 11.1802 7.07345 11.1802C7.62773 11.1802 8.01783 10.9085 8.24435 10.3658L9.41465 10.9596C9.16586 11.4236 8.82089 11.7882 8.37973 12.0539C7.93916 12.3199 7.45257 12.4526 6.92086 12.4526C6.07267 12.4526 5.38807 12.1928 4.86794 11.6721C4.3478 11.152 4.08774 10.4282 4.08774 9.50104C4.08774 8.59615 4.35077 7.8783 4.87655 7.34658C5.40232 6.81517 6.06674 6.54916 6.87009 6.54916C8.04663 6.54857 8.88887 7.00666 9.39802 7.92283ZM14.8775 7.92283L13.622 8.58457C13.4864 8.30224 13.3192 8.10392 13.1215 7.99081C12.9232 7.878 12.7335 7.82129 12.5533 7.82129C11.7051 7.82129 11.2805 8.38091 11.2805 9.50074C11.2805 10.0096 11.3883 10.4163 11.6029 10.7218C11.8176 11.0273 12.1341 11.1802 12.5533 11.1802C13.1069 11.1802 13.4973 10.9085 13.7233 10.3658L14.9108 10.9596C14.651 11.4236 14.3001 11.7882 13.8595 12.0539C13.4184 12.3199 12.9377 12.4526 12.4176 12.4526C11.5578 12.4526 10.8711 12.1928 10.3569 11.6721C9.84156 11.152 9.58446 10.4282 9.58446 9.50104C9.58446 8.59615 9.8472 7.8783 10.3736 7.34658C10.899 6.81517 11.5635 6.54916 12.3665 6.54916C13.5428 6.54857 14.3803 7.00666 14.8775 7.92283Z" fill="#6A6A6B"/>
</svg>
